<svg xmlns="http://www.w3.org/2000/svg" viewBox="0 0 512 512" width="512" height="512">
  <defs>
    <linearGradient id="g" x1="0" y1="0" x2="1" y2="1">
      <stop offset="0%" stop-color="#67E8F9"/>
      <stop offset="45%" stop-color="#22D3EE"/>
      <stop offset="100%" stop-color="#E879F9"/>
    </linearGradient>
    <radialGradient id="bg" cx="0.18" cy="0.06" r="1.1">
      <stop offset="0%" stop-color="#4F46E5"/>
      <stop offset="55%" stop-color="#2A2379"/>
      <stop offset="100%" stop-color="#0C1233"/>
    </radialGradient>
  </defs>
  <rect width="512" height="512" rx="112" fill="url(#bg)"/>
  <path d="M256 74 437 138v146c0 108-72 202-181 230C147 486 75 392 75 284V138L256 74Z"
        fill="none" stroke="url(#g)" stroke-width="24" stroke-linejoin="round"/>
  <path d="M320 205c-18-20-43-30-70-30-38 0-63 18-63 45 0 24 18 36 60 45 49 11 75 29 75 66 0 42-36 69-89 69-34 0-64-12-83-34"
        fill="none" stroke="url(#g)" stroke-width="32" stroke-linecap="round"/>
</svg>
